<?xml version="1.0" encoding="UTF-8" standalone="no"?>
<!-- Created with Inkscape (http://www.inkscape.org/) -->

<svg
   width="2299.509"
   height="699.86499"
   viewBox="0 0 608.41177 185.17261"
   version="1.1"
   id="svg10691"
   inkscape:version="1.2.2 (732a01da63, 2022-12-09)"
   sodipodi:docname="huevee.svg"
   xmlns:inkscape="http://www.inkscape.org/namespaces/inkscape"
   xmlns:sodipodi="http://sodipodi.sourceforge.net/DTD/sodipodi-0.dtd"
   xmlns="http://www.w3.org/2000/svg"
   xmlns:svg="http://www.w3.org/2000/svg">
  <sodipodi:namedview
     id="namedview10693"
     pagecolor="#505050"
     bordercolor="#eeeeee"
     borderopacity="1"
     inkscape:showpageshadow="0"
     inkscape:pageopacity="0"
     inkscape:pagecheckerboard="0"
     inkscape:deskcolor="#505050"
     inkscape:document-units="mm"
     showgrid="false"
     inkscape:zoom="0.18485199"
     inkscape:cx="-213.68447"
     inkscape:cy="1360.548"
     inkscape:window-width="1920"
     inkscape:window-height="991"
     inkscape:window-x="-9"
     inkscape:window-y="-9"
     inkscape:window-maximized="1"
     inkscape:current-layer="layer1" />
  <defs
     id="defs10688" />
  <g
     inkscape:label="Layer 1"
     inkscape:groupmode="layer"
     id="layer1">
    <path
       id="path10897"
       style="font-weight:800;font-size:25.7293px;font-family:'LINE Seed JP_OTF';-inkscape-font-specification:'LINE Seed JP_OTF Ultra-Bold';text-align:center;letter-spacing:0px;text-anchor:middle;fill:#5146e5;fill-opacity:1;stroke:none;stroke-width:5.60167;stroke-linecap:round;stroke-linejoin:round;stroke-opacity:1"
       d="M 3.9511839,4.2187964e-5 C 1.5365539,4.2187964e-5 3.9208977e-6,1.5365971 3.9208977e-6,3.9512219 V 178.68319 c 0,2.41462 1.5365499791023,3.9511 3.9511799791023,3.95118 H 39.951054 c 2.41464,0 3.95118,-1.53655 3.95118,-3.95118 v -60.80507 c 0,-18.87804 8.99978,-28.536242 21.73149,-28.536242 10.8651,0 16.61119,5.441792 18.0635,18.222662 v 30.07 c 0,29.41461 17.341646,47.41467 47.634306,47.41467 17.12195,0 31.17092,-5.92672 40.60992,-17.99993 3.087,-3.17491 5.6999,-6.1288 7.907,-8.88783 1.1975,1.64603 2.4599,3.23889 3.8008,4.75423 17.2658,19.51263 44.4999,27.02729 69.6201,19.20968 7.3655,-2.29227 15.857,-6.95544 22.0663,-12.11812 5.245,-4.36097 6.7473,-6.5546 7.1169,-10.3942 0.2644,-2.75047 -0.9224,-6.22091 -2.8567,-8.34988 -1.2237,-1.34673 -2.2466,-1.91336 -8.4145,-4.66018 -7.4894,-3.33502 -8.7014,-4.15054 -10.4887,-7.05642 -0.8384,-1.36245 -1.0833,-2.07758 -1.2997,-3.77806 -0.4894,-3.85607 0.418,-6.69129 3.0293,-9.46557 l 1.3565,-1.44074 14.6596,-5.97896 c 14.1777,-5.78212 14.6967,-6.01867 15.7938,-7.17114 1.3651,-1.43446 2.6844,-4.00537 3.0489,-5.94331 0.1565,-0.83165 0.2162,-1.61229 0.1551,-2.46238 l 34.0671,76.06978 c 0.8566,1.92728 2.1412,2.78366 4.2825,2.7838 h 5e-4 22.7004 c 2.1415,0 3.4263,-0.85636 4.2829,-2.7838 l 37.7471,-84.28582 c -2.4558,7.26667 -3.7522,15.28522 -3.7522,23.89364 0,38.76216 25.913,65.53191 66.1742,65.53191 15.3618,0 30.191,-3.78569 41.9106,-12.18427 10.8289,7.79495 24.7767,12.18418 41.0766,12.18427 23.9852,-1.3e-4 46.6859,-9.20892 58.2502,-30.83842 0.4287,-0.85664 0.6423,-1.499 0.6423,-2.14148 0,-1.28488 -0.8563,-2.14184 -2.3554,-2.78432 l -30.41,-10.27948 c -1.9275,-0.42865 -3.6411,3.7e-4 -5.1403,1.71359 -4.4972,6.21052 -11.5642,8.99429 -20.7729,8.99429 -11.9927,0 -19.9164,-6.85273 -23.1288,-19.27376 h 81.1651 c 2.5699,0 3.8548,-1.28492 4.069,-3.64061 2.3557,-42.831152 -20.3446,-72.599186 -62.3192,-72.599186 -16.9545,0 -31.364,4.747885 -42.3659,13.122713 -10.2386,-8.393503 -23.8984,-13.122713 -40.6213,-13.122713 -26.442,0 -46.6947,11.547405 -57.4828,30.394014 l 10.6387,-23.755143 c 0.2139,-0.642567 0.4284,-1.070671 0.4284,-1.713074 0,-1.49913 -1.2847,-2.569869 -3.4262,-2.569869 h -35.9782 c -2.1416,0 -3.4268,1.070517 -4.2834,2.78381 l -24.628,66.174258 -25.0563,-66.174258 c -0.6425,-1.713293 -2.1414,-2.78381 -4.283,-2.78381 h -37.6912 c -2.1416,0 -3.4267,1.070739 -3.4267,2.569869 0,0.642569 0.2143,1.07059 0.4284,1.713074 l 9.6661,21.583693 c -0.339,-0.49946 -0.6866,-0.99766 -1.047,-1.49861 -11.3052,-15.713616 -29.2859,-25.777127 -48.6275,-27.215914 -19.4278,-1.445112 -37.8827,5.404684 -51.7736,19.216398 -12.6881,12.615806 -19.6727,30.224668 -19.3357,48.049268 -0.6963,17.52284 -9.253,26.19426 -21.24112,26.19426 -10.83115,0 -16.41676,-5.24783 -17.84387,-17.89554 V 98.34184 c 0,-29.634133 -17.34152,-47.414674 -47.414686,-47.414674 -14.92682,0 -27.65874,4.828984 -36.65874,15.36547 V 3.9512219 c 0,-2.4146248 -1.53654,-3.951179712036 -3.95118,-3.951179712036 z M 219.18045,72.219406 c 1.4693,0.03406 2.9566,0.3693 4.3744,1.03973 2.6281,1.24277 4.1055,2.747566 5.365,5.463752 0.8165,1.76115 1.0277,2.59936 1.0527,4.18631 0.044,2.70835 -1.2241,5.94441 -3.0655,7.82226 h 0.001 c -3.5297,3.599712 -8.4187,4.446282 -12.8762,2.22983 -2.7965,-1.39075 -4.4215,-3.25847 -5.3981,-6.20478 -0.9424,-2.84195 -0.8957,-4.95007 0.169,-7.65535 1.7231,-4.377941 5.9696,-6.983926 10.3776,-6.881752 z m 37.8225,5.638412 c 0.1829,-10e-4 0.3641,0.003 0.5436,0.0129 9.3931,0.52887 13.9152,11.24028 7.7422,18.337902 l 0.001,0.003 c -0.9571,1.10036 -1.6934,1.59116 -3.7125,2.4722 -3.0742,1.34257 -4.7369,1.48306 -7.8217,0.66405 -2.9963,-0.79564 -6.455,-4.41988 -7.2848,-7.635712 -0.9431,-3.6514 0.1631,-7.71227 2.8902,-10.60866 1.8172,-1.93433 4.8976,-3.22504 7.6419,-3.2458 z m 205.2934,9.21701 c 9.5476,0 16.2149,5.00213 19.4944,13.983642 -0.4286,1.797 -0.7938,3.63154 -1.0888,5.50458 h -40.6776 c 2.5698,-12.84936 10.4934,-19.488222 22.272,-19.488222 z m 82.9866,0 c 11.3503,0 18.6316,7.067182 20.9874,19.488222 h -41.8176 c -0.171,-1.16394 -0.3641,-2.3132 -0.5798,-3.44734 3.2264,-10.587342 10.735,-16.040882 21.41,-16.040882 z m -350.2902,15.387692 c 1.3186,-0.0123 2.6403,0.24554 4.052,0.77308 2.0126,0.75218 4.606,3.06063 5.7185,5.09013 1.0878,1.98464 1.4677,5.14536 0.9126,7.59385 -0.4752,2.09376 -1.048,3.17043 -2.6929,5.06326 v -0.003 c -0.8237,0.94713 -1.6737,1.49763 -3.7259,2.41071 -2.4604,1.09764 -2.8199,1.16985 -4.811,1.01337 -6.6003,-0.51922 -11.127,-5.93094 -10.3679,-12.39408 0.2611,-2.22184 1.3487,-4.42662 3.1016,-6.28798 1.1264,-1.19574 1.8095,-1.63216 3.7781,-2.41123 1.4007,-0.55309 2.7163,-0.83567 4.0349,-0.84801 z m 245.0316,27.44381 h 40.4502 c 0.5413,3.99605 1.3837,7.82902 2.5104,11.47992 -4.5154,5.36822 -11.2405,7.79384 -19.8318,7.79384 -11.9927,0 -19.9165,-6.85273 -23.1288,-19.27376 z m -230.911,8.45684 c 1.0773,-0.0444 2.1441,0.11344 3.4608,0.46303 3.0081,0.79871 6.4652,4.41748 7.2967,7.63881 0.9409,3.64274 -0.173,7.74864 -2.8634,10.55439 l 5e-4,0.001 c -1.6069,1.67575 -4.2925,3.02099 -6.4756,3.24322 -10.4373,1.0634 -16.3434,-10.94771 -9.1488,-18.60559 1.4251,-1.51411 1.7431,-1.70873 4.2055,-2.54299 1.3591,-0.4607 2.4469,-0.70747 3.5243,-0.7519 z" />
  </g>
</svg>
